<?xml version="1.0" encoding="UTF-8"?>
<svg version="1.1" xmlns="http://www.w3.org/2000/svg" width="96" height="96">
<path d="M0 0 C2.5 1.75 2.5 1.75 4 4 C4 5.32 4 6.64 4 8 C4.87736816 7.9685791 4.87736816 7.9685791 5.77246094 7.93652344 C8.43146465 7.85319885 11.09019355 7.80129103 13.75 7.75 C15.13058594 7.69972656 15.13058594 7.69972656 16.5390625 7.6484375 C17.42851563 7.63554688 18.31796875 7.62265625 19.234375 7.609375 C20.05131836 7.58842773 20.86826172 7.56748047 21.70996094 7.54589844 C24.94514825 8.18741746 25.97440238 9.41697529 28 12 C28.50793457 15.1875 28.50793457 15.1875 28.51757812 19 C28.5245874 19.69641602 28.53159668 20.39283203 28.53881836 21.11035156 C28.55639196 23.40730932 28.54477919 25.70303021 28.53125 28 C28.53394513 29.59896073 28.53782773 31.19791987 28.54284668 32.796875 C28.54874082 36.14599226 28.54018192 39.49468243 28.52148438 42.84375 C28.49869435 47.13478591 28.51181796 51.42482111 28.53577423 55.71582031 C28.5502348 59.01700366 28.54562515 62.31795011 28.53526306 65.61914062 C28.53259646 67.20117308 28.53586322 68.78322711 28.54518127 70.36523438 C28.55535179 72.57740163 28.5398419 74.787953 28.51757812 77 C28.51439575 78.258125 28.51121338 79.51625 28.50793457 80.8125 C28 84 28 84 26.31335449 86.40515137 C23.47569632 88.36145995 21.89812042 88.50637196 18.46875 88.51757812 C17.36080078 88.53018677 16.25285156 88.54279541 15.11132812 88.55578613 C13.91958984 88.54768921 12.72785156 88.53959229 11.5 88.53125 C9.65825195 88.53699036 9.65825195 88.53699036 7.77929688 88.54284668 C5.18358541 88.54556842 2.58784664 88.53818911 -0.0078125 88.52148438 C-3.98499599 88.50008075 -7.96037282 88.52127963 -11.9375 88.546875 C-14.45833733 88.54423177 -16.97917353 88.53910691 -19.5 88.53125 C-21.28760742 88.54339539 -21.28760742 88.54339539 -23.11132812 88.55578613 C-24.21927734 88.54317749 -25.32722656 88.53056885 -26.46875 88.51757812 C-27.44263672 88.51439575 -28.41652344 88.51121338 -29.41992188 88.50793457 C-32.85864197 87.83096096 -33.9921804 86.86314465 -36 84 C-36.50793457 80.8125 -36.50793457 80.8125 -36.51757812 77 C-36.5245874 76.30358398 -36.53159668 75.60716797 -36.53881836 74.88964844 C-36.55639196 72.59269068 -36.54477919 70.29696979 -36.53125 68 C-36.53394513 66.40103927 -36.53782773 64.80208013 -36.54284668 63.203125 C-36.54874082 59.85400774 -36.54018192 56.50531757 -36.52148438 53.15625 C-36.49869435 48.86521409 -36.51181796 44.57517889 -36.53577423 40.28417969 C-36.5502348 36.98299634 -36.54562515 33.68204989 -36.53526306 30.38085938 C-36.53259646 28.79882692 -36.53586322 27.21677289 -36.54518127 25.63476562 C-36.55535179 23.42259837 -36.5398419 21.212047 -36.51757812 19 C-36.51439575 17.741875 -36.51121338 16.48375 -36.50793457 15.1875 C-35.91108798 11.44204024 -34.9924253 10.25537303 -32 8 C-29.70996094 7.54589844 -29.70996094 7.54589844 -27.234375 7.609375 C-25.90019531 7.62871094 -25.90019531 7.62871094 -24.5390625 7.6484375 C-23.15847656 7.69871094 -23.15847656 7.69871094 -21.75 7.75 C-20.81414063 7.76804687 -19.87828125 7.78609375 -18.9140625 7.8046875 C-16.60832985 7.85174327 -14.30469055 7.91746287 -12 8 C-11.896875 7.05125 -11.79375 6.1025 -11.6875 5.125 C-10.36097427 -0.90466241 -5.31327012 -0.87663612 0 0 Z M-6 5 C-6.33 6.65 -6.66 8.3 -7 10 C-4.525 10.495 -4.525 10.495 -2 11 C-1.67 9.35 -1.34 7.7 -1 6 C-2.65 5.67 -4.3 5.34 -6 5 Z " fill="#FEFEFE" transform="translate(52,0)"/>
<path d="M0 0 C2.5 1.75 2.5 1.75 4 4 C4 5.32 4 6.64 4 8 C4.87736816 7.9685791 4.87736816 7.9685791 5.77246094 7.93652344 C8.43146465 7.85319885 11.09019355 7.80129103 13.75 7.75 C15.13058594 7.69972656 15.13058594 7.69972656 16.5390625 7.6484375 C17.42851563 7.63554688 18.31796875 7.62265625 19.234375 7.609375 C20.05131836 7.58842773 20.86826172 7.56748047 21.70996094 7.54589844 C24.94514825 8.18741746 25.97440238 9.41697529 28 12 C28.50793457 15.1875 28.50793457 15.1875 28.51757812 19 C28.5245874 19.69641602 28.53159668 20.39283203 28.53881836 21.11035156 C28.55639196 23.40730932 28.54477919 25.70303021 28.53125 28 C28.53394513 29.59896073 28.53782773 31.19791987 28.54284668 32.796875 C28.54874082 36.14599226 28.54018192 39.49468243 28.52148438 42.84375 C28.49869435 47.13478591 28.51181796 51.42482111 28.53577423 55.71582031 C28.5502348 59.01700366 28.54562515 62.31795011 28.53526306 65.61914062 C28.53259646 67.20117308 28.53586322 68.78322711 28.54518127 70.36523438 C28.55535179 72.57740163 28.5398419 74.787953 28.51757812 77 C28.51439575 78.258125 28.51121338 79.51625 28.50793457 80.8125 C28 84 28 84 26.31335449 86.40515137 C23.47569632 88.36145995 21.89812042 88.50637196 18.46875 88.51757812 C17.36080078 88.53018677 16.25285156 88.54279541 15.11132812 88.55578613 C13.91958984 88.54768921 12.72785156 88.53959229 11.5 88.53125 C9.65825195 88.53699036 9.65825195 88.53699036 7.77929688 88.54284668 C5.18358541 88.54556842 2.58784664 88.53818911 -0.0078125 88.52148438 C-3.98499599 88.50008075 -7.96037282 88.52127963 -11.9375 88.546875 C-14.45833733 88.54423177 -16.97917353 88.53910691 -19.5 88.53125 C-21.28760742 88.54339539 -21.28760742 88.54339539 -23.11132812 88.55578613 C-24.21927734 88.54317749 -25.32722656 88.53056885 -26.46875 88.51757812 C-27.44263672 88.51439575 -28.41652344 88.51121338 -29.41992188 88.50793457 C-32.85864197 87.83096096 -33.9921804 86.86314465 -36 84 C-36.50793457 80.8125 -36.50793457 80.8125 -36.51757812 77 C-36.5245874 76.30358398 -36.53159668 75.60716797 -36.53881836 74.88964844 C-36.55639196 72.59269068 -36.54477919 70.29696979 -36.53125 68 C-36.53394513 66.40103927 -36.53782773 64.80208013 -36.54284668 63.203125 C-36.54874082 59.85400774 -36.54018192 56.50531757 -36.52148438 53.15625 C-36.49869435 48.86521409 -36.51181796 44.57517889 -36.53577423 40.28417969 C-36.5502348 36.98299634 -36.54562515 33.68204989 -36.53526306 30.38085938 C-36.53259646 28.79882692 -36.53586322 27.21677289 -36.54518127 25.63476562 C-36.55535179 23.42259837 -36.5398419 21.212047 -36.51757812 19 C-36.51439575 17.741875 -36.51121338 16.48375 -36.50793457 15.1875 C-35.91108798 11.44204024 -34.9924253 10.25537303 -32 8 C-29.70996094 7.54589844 -29.70996094 7.54589844 -27.234375 7.609375 C-25.90019531 7.62871094 -25.90019531 7.62871094 -24.5390625 7.6484375 C-23.15847656 7.69871094 -23.15847656 7.69871094 -21.75 7.75 C-20.81414063 7.76804687 -19.87828125 7.78609375 -18.9140625 7.8046875 C-16.60832985 7.85174327 -14.30469055 7.91746287 -12 8 C-11.896875 7.05125 -11.79375 6.1025 -11.6875 5.125 C-10.36097427 -0.90466241 -5.31327012 -0.87663612 0 0 Z M-6 5 C-6.33 6.65 -6.66 8.3 -7 10 C-4.525 10.495 -4.525 10.495 -2 11 C-1.67 9.35 -1.34 7.7 -1 6 C-2.65 5.67 -4.3 5.34 -6 5 Z M-30 15 C-30.09939626 17.05012846 -30.12799553 19.10371392 -30.12939453 21.15625 C-30.13254669 22.47431641 -30.13569885 23.79238281 -30.13894653 25.15039062 C-30.13715675 26.60026075 -30.1351058 28.05013058 -30.1328125 29.5 C-30.13348557 30.97591162 -30.13445563 32.45182313 -30.13571167 33.92773438 C-30.13718848 37.02475029 -30.13503464 40.12173742 -30.13037109 43.21875 C-30.1246738 47.19708549 -30.1279529 51.17535352 -30.13394356 55.15368652 C-30.13754963 58.20247917 -30.13641037 61.25125571 -30.13381577 64.30004883 C-30.13314662 65.76733406 -30.13397447 67.23462074 -30.13629532 68.7019043 C-30.13882257 70.74918593 -30.1342906 72.79647266 -30.12939453 74.84375 C-30.12859894 76.01099609 -30.12780334 77.17824219 -30.12698364 78.38085938 C-30.29761712 80.92639448 -30.29761712 80.92639448 -29 82 C-27.44000952 82.09846967 -25.87559456 82.12798618 -24.3125 82.12939453 C-23.31476562 82.13254669 -22.31703125 82.13569885 -21.2890625 82.13894653 C-20.20367187 82.1369223 -19.11828125 82.13489807 -18 82.1328125 C-16.34097656 82.13424759 -16.34097656 82.13424759 -14.6484375 82.13571167 C-12.30468692 82.13639367 -9.96093447 82.13453804 -7.6171875 82.13037109 C-4.01558212 82.12502314 -0.41410147 82.13031547 3.1875 82.13671875 C5.45833361 82.13605797 7.72916714 82.13477682 10 82.1328125 C11.08539063 82.13483673 12.17078125 82.13686096 13.2890625 82.13894653 C14.28679687 82.13579437 15.28453125 82.13264221 16.3125 82.12939453 C17.63701172 82.12820114 17.63701172 82.12820114 18.98828125 82.12698364 C20.99767892 82.22270674 20.99767892 82.22270674 22 81 C22.09939626 78.94987154 22.12799553 76.89628608 22.12939453 74.84375 C22.13254669 73.52568359 22.13569885 72.20761719 22.13894653 70.84960938 C22.13715675 69.39973925 22.1351058 67.94986942 22.1328125 66.5 C22.13348557 65.02408838 22.13445563 63.54817687 22.13571167 62.07226562 C22.13718848 58.97524971 22.13503464 55.87826258 22.13037109 52.78125 C22.1246738 48.80291451 22.1279529 44.82464648 22.13394356 40.84631348 C22.13754963 37.79752083 22.13641037 34.74874429 22.13381577 31.69995117 C22.13314662 30.23266594 22.13397447 28.76537926 22.13629532 27.2980957 C22.13882257 25.25081407 22.1342906 23.20352734 22.12939453 21.15625 C22.12859894 19.98900391 22.12780334 18.82175781 22.12698364 17.61914062 C22.29761712 15.07360552 22.29761712 15.07360552 21 14 C18.66702567 13.95907063 16.33294775 13.95758277 14 14 C13.34 15.65 12.68 17.3 12 19 C1.44 19 -9.12 19 -20 19 C-20.66 17.35 -21.32 15.7 -22 14 C-26.32320086 13.49633499 -26.32320086 13.49633499 -30 15 Z " fill="#455A64" transform="translate(52,0)"/>
<path d="M0 0 C5.54648833 1.98551333 9.38327402 5.76654805 12 11 C12.59057744 16.67862925 12.29370905 21.16922672 9 26 C4.99653611 30.03627917 1.41408246 32.12458106 -4.3125 32.3125 C-8.94226662 32.25237316 -11.4369151 31.06591027 -15 28 C-19.3022759 23.23261319 -20.36282503 19.56252705 -20.28125 13.28125 C-19.69180611 8.50020514 -16.85179203 5.75038822 -13.375 2.6875 C-8.9477123 -0.45820442 -5.33698346 -0.62993903 0 0 Z " fill="#51B155" transform="translate(52,34)"/>
<path d="M0 0 C2.5 1.75 2.5 1.75 4 4 C4 5.32 4 6.64 4 8 C7.3 8 10.6 8 14 8 C14.1953125 15.6171875 14.1953125 15.6171875 14 18 C11.09558341 20.90441659 8.93242155 20.25867736 4.875 20.265625 C4.1722998 20.26753845 3.46959961 20.2694519 2.74560547 20.27142334 C1.25943646 20.27278475 -0.22674445 20.26909132 -1.71289062 20.26074219 C-3.99115646 20.25004154 -6.26863377 20.26063839 -8.546875 20.2734375 C-9.98958508 20.2721159 -11.43229466 20.26955349 -12.875 20.265625 C-14.19242188 20.26336914 -15.50984375 20.26111328 -16.8671875 20.25878906 C-20 20 -20 20 -22 18 C-22.27450545 14.65103346 -22.08628804 11.36523337 -22 8 C-18.7 8 -15.4 8 -12 8 C-11.8453125 6.576875 -11.8453125 6.576875 -11.6875 5.125 C-10.36097427 -0.90466241 -5.31327012 -0.87663612 0 0 Z M-6 5 C-6.33 6.65 -6.66 8.3 -7 10 C-4.525 10.495 -4.525 10.495 -2 11 C-1.67 9.35 -1.34 7.7 -1 6 C-2.65 5.67 -4.3 5.34 -6 5 Z " fill="#8FA3AD" transform="translate(52,0)"/>
<path d="M0 0 C2.1875 0.31640625 2.1875 0.31640625 4 1 C2.46356148 4.68069887 0.21849055 6.98775204 -2.625 9.75 C-3.44226562 10.54921875 -4.25953125 11.3484375 -5.1015625 12.171875 C-5.72804688 12.77515625 -6.35453125 13.3784375 -7 14 C-8.17825358 13.09827532 -9.34231577 12.17798498 -10.5 11.25 C-11.1496875 10.73953125 -11.799375 10.2290625 -12.46875 9.703125 C-14 8 -14 8 -14 4 C-13.13375 4.495 -13.13375 4.495 -12.25 5 C-9.80116138 6.27075898 -9.80116138 6.27075898 -6 6 C-4.30663038 4.5394687 -2.9935412 2.92975997 -1.5625 1.21484375 C-1.046875 0.81394531 -0.53125 0.41304687 0 0 Z " fill="#DDF0DE" transform="translate(54,44)"/>
</svg>
